<svg width="13" height="25" viewBox="0 0 13 25" fill="none" xmlns="http://www.w3.org/2000/svg">
<rect width="13" height="25" fill="#1E1E1E"/>
<path d="M9.608 19.264C9.608 18.976 9.616 18.64 9.632 18.256C9.648 17.872 9.68 17.544 9.728 17.272H9.584C9.216 17.816 8.704 18.28 8.048 18.664C7.408 19.048 6.576 19.24 5.552 19.24C4 19.24 2.736 18.688 1.76 17.584C0.8 16.464 0.32 14.8 0.32 12.592C0.32 11.12 0.544 9.888 0.992 8.896C1.44 7.904 2.064 7.16 2.864 6.664C3.664 6.152 4.584 5.896 5.624 5.896C6.632 5.896 7.456 6.088 8.096 6.472C8.736 6.856 9.248 7.328 9.632 7.888H9.728L10.04 6.136H11.72V24.76H9.608V19.264ZM5.96 17.488C6.84 17.488 7.544 17.328 8.072 17.008C8.616 16.688 9.008 16.2 9.248 15.544C9.488 14.872 9.616 14.04 9.632 13.048V12.616C9.632 10.984 9.36 9.752 8.816 8.92C8.272 8.072 7.304 7.648 5.912 7.648C4.76 7.648 3.904 8.104 3.344 9.016C2.784 9.912 2.504 11.12 2.504 12.64C2.504 14.16 2.784 15.352 3.344 16.216C3.92 17.064 4.792 17.488 5.96 17.488Z" fill="#757272"/>
<path d="M3.152 5.2C3.152 5.744 3.136 6.256 3.104 6.736C3.088 7.2 3.064 7.568 3.032 7.84H3.152C3.52 7.296 4.024 6.84 4.664 6.472C5.304 6.104 6.128 5.92 7.136 5.92C8.736 5.92 10.016 6.48 10.976 7.6C11.952 8.704 12.44 10.36 12.44 12.568C12.44 14.04 12.216 15.272 11.768 16.264C11.336 17.256 10.72 18 9.92 18.496C9.12 18.992 8.192 19.24 7.136 19.24C6.128 19.24 5.304 19.056 4.664 18.688C4.024 18.32 3.52 17.88 3.152 17.368H2.984L2.552 19H1.04V0.759999H3.152V5.2ZM6.776 7.672C5.864 7.672 5.144 7.848 4.616 8.2C4.088 8.536 3.712 9.064 3.488 9.784C3.264 10.488 3.152 11.392 3.152 12.496V12.592C3.152 14.176 3.408 15.392 3.92 16.24C4.448 17.072 5.416 17.488 6.824 17.488C7.976 17.488 8.832 17.064 9.392 16.216C9.968 15.368 10.256 14.144 10.256 12.544C10.256 10.928 9.968 9.712 9.392 8.896C8.832 8.08 7.96 7.672 6.776 7.672Z" fill="#688544"/>
</svg>
