<svg width="140" height="25" viewBox="0 0 140 25" fill="none" xmlns="http://www.w3.org/2000/svg">
<path d="M16.28 10.408C16.28 11.8 16.088 13.064 15.704 14.2C15.336 15.336 14.784 16.296 14.048 17.08C13.312 17.864 12.392 18.44 11.288 18.808L15.392 23.08H12.296L8.984 19.216C8.888 19.216 8.784 19.216 8.672 19.216C8.576 19.232 8.48 19.24 8.384 19.24C7.04 19.24 5.872 19.032 4.88 18.616C3.888 18.184 3.064 17.584 2.408 16.816C1.752 16.032 1.264 15.096 0.944 14.008C0.624 12.92 0.464 11.712 0.464 10.384C0.464 8.624 0.752 7.088 1.328 5.776C1.904 4.464 2.776 3.44 3.944 2.704C5.128 1.968 6.616 1.6 8.408 1.6C10.12 1.6 11.56 1.968 12.728 2.704C13.896 3.424 14.776 4.448 15.368 5.776C15.976 7.088 16.28 8.632 16.28 10.408ZM2.744 10.408C2.744 11.848 2.944 13.088 3.344 14.128C3.744 15.168 4.36 15.968 5.192 16.528C6.04 17.088 7.104 17.368 8.384 17.368C9.68 17.368 10.736 17.088 11.552 16.528C12.384 15.968 13 15.168 13.4 14.128C13.8 13.088 14 11.848 14 10.408C14 8.248 13.552 6.56 12.656 5.344C11.76 4.112 10.344 3.496 8.408 3.496C7.112 3.496 6.04 3.776 5.192 4.336C4.36 4.88 3.744 5.672 3.344 6.712C2.944 7.736 2.744 8.968 2.744 10.408ZM30.542 6.136V19H28.814L28.502 17.296H28.406C28.134 17.744 27.782 18.112 27.35 18.4C26.918 18.688 26.446 18.896 25.934 19.024C25.422 19.168 24.886 19.24 24.326 19.24C23.302 19.24 22.438 19.08 21.734 18.76C21.046 18.424 20.526 17.912 20.174 17.224C19.822 16.536 19.646 15.648 19.646 14.56V6.136H21.782V14.416C21.782 15.44 22.014 16.208 22.478 16.72C22.942 17.232 23.662 17.488 24.638 17.488C25.598 17.488 26.35 17.312 26.894 16.96C27.454 16.592 27.846 16.064 28.07 15.376C28.31 14.672 28.43 13.824 28.43 12.832V6.136H30.542ZM39.4979 5.92C41.0659 5.92 42.2259 6.264 42.9779 6.952C43.7299 7.64 44.1059 8.736 44.1059 10.24V19H42.5699L42.1619 17.176H42.0659C41.6979 17.64 41.3139 18.032 40.9139 18.352C40.5299 18.656 40.0819 18.88 39.5699 19.024C39.0739 19.168 38.4659 19.24 37.7459 19.24C36.9779 19.24 36.2819 19.104 35.6579 18.832C35.0499 18.56 34.5699 18.144 34.2179 17.584C33.8659 17.008 33.6899 16.288 33.6899 15.424C33.6899 14.144 34.1939 13.16 35.2019 12.472C36.2099 11.768 37.7619 11.384 39.8579 11.32L42.0419 11.248V10.48C42.0419 9.408 41.8099 8.664 41.3459 8.248C40.8819 7.832 40.2259 7.624 39.3779 7.624C38.7059 7.624 38.0659 7.728 37.4579 7.936C36.8499 8.128 36.2819 8.352 35.7539 8.608L35.1059 7.024C35.6659 6.72 36.3299 6.464 37.0979 6.256C37.8659 6.032 38.6659 5.92 39.4979 5.92ZM40.1219 12.784C38.5219 12.848 37.4099 13.104 36.7859 13.552C36.1779 14 35.8739 14.632 35.8739 15.448C35.8739 16.168 36.0899 16.696 36.5219 17.032C36.9699 17.368 37.5379 17.536 38.2259 17.536C39.3139 17.536 40.2179 17.24 40.9379 16.648C41.6579 16.04 42.0179 15.112 42.0179 13.864V12.712L40.1219 12.784ZM50.1911 19H48.0791V0.759999H50.1911V19ZM56.3786 6.136V19H54.2666V6.136H56.3786ZM55.3466 1.312C55.6666 1.312 55.9466 1.424 56.1866 1.648C56.4426 1.856 56.5706 2.192 56.5706 2.656C56.5706 3.104 56.4426 3.44 56.1866 3.664C55.9466 3.888 55.6666 4 55.3466 4C54.9946 4 54.6986 3.888 54.4586 3.664C54.2186 3.44 54.0986 3.104 54.0986 2.656C54.0986 2.192 54.2186 1.856 54.4586 1.648C54.6986 1.424 54.9946 1.312 55.3466 1.312ZM64.7501 17.512C65.0701 17.512 65.3981 17.488 65.7341 17.44C66.0701 17.376 66.3421 17.312 66.5501 17.248V18.856C66.3261 18.968 66.0061 19.056 65.5901 19.12C65.1741 19.2 64.7741 19.24 64.3901 19.24C63.7181 19.24 63.0941 19.128 62.5181 18.904C61.9581 18.664 61.5021 18.256 61.1501 17.68C60.7981 17.104 60.6221 16.296 60.6221 15.256V7.768H58.7981V6.76L60.6461 5.92L61.4861 3.184H62.7341V6.136H66.4541V7.768H62.7341V15.208C62.7341 15.992 62.9181 16.576 63.2861 16.96C63.6701 17.328 64.1581 17.512 64.7501 17.512ZM67.1099 6.136H69.3659L72.1499 13.456C72.3099 13.888 72.4539 14.304 72.5819 14.704C72.7259 15.104 72.8539 15.496 72.9659 15.88C73.0779 16.248 73.1659 16.608 73.2299 16.96H73.3259C73.4219 16.56 73.5739 16.04 73.7819 15.4C73.9899 14.744 74.2059 14.088 74.4299 13.432L77.0459 6.136H79.3259L73.7819 20.776C73.4779 21.576 73.1179 22.272 72.7019 22.864C72.3019 23.472 71.8059 23.936 71.2139 24.256C70.6379 24.592 69.9339 24.76 69.1019 24.76C68.7179 24.76 68.3819 24.736 68.0939 24.688C67.8059 24.656 67.5579 24.616 67.3499 24.568V22.888C67.5259 22.92 67.7339 22.952 67.9739 22.984C68.2299 23.016 68.4939 23.032 68.7659 23.032C69.2619 23.032 69.6859 22.936 70.0379 22.744C70.4059 22.568 70.7179 22.304 70.9739 21.952C71.2299 21.616 71.4459 21.216 71.6219 20.752L72.2939 19.048L67.1099 6.136ZM91.3959 1.864C92.8199 1.864 94.0119 2 94.9719 2.272C95.9479 2.544 96.6759 2.992 97.1559 3.616C97.6519 4.24 97.8999 5.072 97.8999 6.112C97.8999 6.784 97.7719 7.384 97.5159 7.912C97.2759 8.424 96.9079 8.856 96.4119 9.208C95.9319 9.544 95.3399 9.776 94.6359 9.904V10.024C95.3559 10.136 96.0039 10.344 96.5799 10.648C97.1719 10.952 97.6359 11.384 97.9719 11.944C98.3079 12.504 98.4759 13.232 98.4759 14.128C98.4759 15.168 98.2359 16.056 97.7559 16.792C97.2759 17.512 96.5879 18.064 95.6919 18.448C94.8119 18.816 93.7559 19 92.5239 19H86.4999V1.864H91.3959ZM91.8279 9.16C93.2999 9.16 94.3079 8.928 94.8519 8.464C95.3959 7.984 95.6679 7.28 95.6679 6.352C95.6679 5.408 95.3319 4.736 94.6599 4.336C94.0039 3.92 92.9479 3.712 91.4919 3.712H88.6599V9.16H91.8279ZM88.6599 10.96V17.176H92.1159C93.6359 17.176 94.6919 16.88 95.2839 16.288C95.8759 15.696 96.1719 14.92 96.1719 13.96C96.1719 13.352 96.0359 12.824 95.7639 12.376C95.5079 11.928 95.0679 11.584 94.4439 11.344C93.8359 11.088 93.0039 10.96 91.9479 10.96H88.6599ZM106.789 5.896C107.893 5.896 108.837 6.136 109.621 6.616C110.421 7.096 111.029 7.776 111.445 8.656C111.877 9.52 112.093 10.536 112.093 11.704V12.976H103.285C103.317 14.432 103.685 15.544 104.389 16.312C105.109 17.064 106.109 17.44 107.389 17.44C108.205 17.44 108.925 17.368 109.549 17.224C110.189 17.064 110.845 16.84 111.517 16.552V18.4C110.861 18.688 110.213 18.896 109.573 19.024C108.933 19.168 108.173 19.24 107.293 19.24C106.077 19.24 104.997 18.992 104.053 18.496C103.125 18 102.397 17.264 101.869 16.288C101.357 15.296 101.101 14.088 101.101 12.664C101.101 11.256 101.333 10.048 101.797 9.04C102.277 8.032 102.941 7.256 103.789 6.712C104.653 6.168 105.653 5.896 106.789 5.896ZM106.765 7.624C105.757 7.624 104.957 7.952 104.365 8.608C103.789 9.248 103.445 10.144 103.333 11.296H109.885C109.885 10.56 109.773 9.92 109.549 9.376C109.325 8.832 108.981 8.408 108.517 8.104C108.069 7.784 107.485 7.624 106.765 7.624ZM120.24 5.92C121.808 5.92 122.968 6.264 123.72 6.952C124.472 7.64 124.848 8.736 124.848 10.24V19H123.312L122.904 17.176H122.808C122.44 17.64 122.056 18.032 121.656 18.352C121.272 18.656 120.824 18.88 120.312 19.024C119.816 19.168 119.208 19.24 118.488 19.24C117.72 19.24 117.024 19.104 116.4 18.832C115.792 18.56 115.312 18.144 114.96 17.584C114.608 17.008 114.432 16.288 114.432 15.424C114.432 14.144 114.936 13.16 115.944 12.472C116.952 11.768 118.504 11.384 120.6 11.32L122.784 11.248V10.48C122.784 9.408 122.552 8.664 122.088 8.248C121.624 7.832 120.968 7.624 120.12 7.624C119.448 7.624 118.808 7.728 118.2 7.936C117.592 8.128 117.024 8.352 116.496 8.608L115.848 7.024C116.408 6.72 117.072 6.464 117.84 6.256C118.608 6.032 119.408 5.92 120.24 5.92ZM120.864 12.784C119.264 12.848 118.152 13.104 117.528 13.552C116.92 14 116.616 14.632 116.616 15.448C116.616 16.168 116.832 16.696 117.264 17.032C117.712 17.368 118.28 17.536 118.968 17.536C120.056 17.536 120.96 17.24 121.68 16.648C122.4 16.04 122.76 15.112 122.76 13.864V12.712L120.864 12.784ZM135.013 5.896C136.549 5.896 137.709 6.272 138.493 7.024C139.277 7.76 139.669 8.96 139.669 10.624V19H137.581V10.768C137.581 9.728 137.349 8.952 136.885 8.44C136.421 7.928 135.693 7.672 134.701 7.672C133.277 7.672 132.293 8.072 131.749 8.872C131.205 9.672 130.933 10.824 130.933 12.328V19H128.821V6.136H130.525L130.837 7.888H130.957C131.245 7.44 131.597 7.072 132.013 6.784C132.445 6.48 132.917 6.256 133.429 6.112C133.941 5.968 134.469 5.896 135.013 5.896Z" fill="url(#paint0_linear_1_2)"/>
<defs>
<linearGradient id="paint0_linear_1_2" x1="-1" y1="17.5" x2="162" y2="17.5" gradientUnits="userSpaceOnUse">
<stop stop-color="#1E1E1E"/>
<stop offset="0.45" stop-color="#376CBB" stop-opacity="0.4555"/>
<stop offset="1" stop-color="#1C211C"/>
</linearGradient>
</defs>
</svg>
